
<svg id="Group_368" data-name="Group 368" xmlns="http://www.w3.org/2000/svg" width="171.632" height="54.466" viewBox="0 0 171.632 54.466">
  <g id="Group_2" data-name="Group 2" transform="translate(0 2.553)">
    <g id="Group_1" data-name="Group 1">
      <path id="Path_29" data-name="Path 29" d="M58.533,61.427c-1.643-.421-2.224-1.8-2.224-4.028l-.24-16.151V13.915c0-3.286-13.005.822-13.005.822V41.248L42.823,57.4c-.08,2.385-.661,3.787-2.645,4.288l-2.645.581a9.706,9.706,0,0,0,.08,1.483H61.739a4.521,4.521,0,0,0-.04-1.483ZM39.777,59.2v-.741h-4.95l-.561-17.293V31.128c0-11.041-6.913-13.346-14.087-13.346S5.611,23.634,3.206,26.259l.661.822a16.467,16.467,0,0,1,8.476-2.725c4.689,0,8.977,2.3,8.977,8.236v8.316c-1.483.08-2.966.24-4.449.421C9.478,42.23,0,44.775,0,54.995a9.289,9.289,0,0,0,9.558,9.478c4.368,0,9.058-3.126,11.863-6.913.661,4.769,3.627,6.913,7.915,6.913C31.962,64.473,37.152,62.329,39.777,59.2ZM21.321,56.237a10.1,10.1,0,0,1-3.046.5c-2.725,0-5.511-1.483-5.511-6.092,0-3.286,1.9-6.252,7.074-7.495l1.483-.321Zm145.361,2.224-.561-17.293V31.128c0-11.041-6.913-13.346-14.087-13.346s-14.568,5.851-16.973,8.476l.661.822a16.467,16.467,0,0,1,8.476-2.725c4.689,0,8.977,2.3,8.977,8.236v8.316c-1.483.08-2.966.24-4.449.421-7.414.9-16.893,3.467-16.893,13.666a9.289,9.289,0,0,0,9.559,9.478c4.368,0,9.058-3.126,11.863-6.913.661,4.769,3.627,6.913,7.915,6.913,2.645,0,7.815-2.144,10.46-5.27v-.741Zm-13.506-2.224a10.1,10.1,0,0,1-3.046.5c-2.725,0-5.511-1.483-5.511-6.092,0-3.286,1.9-6.252,7.074-7.495l1.483-.321Zm-58.553-.661-.421-.822a22.86,22.86,0,0,1-9.058,2.224c-7.254,0-12.765-4.609-13.747-16.973v-.16H96.928V38.122c0-10.7-5.511-20.339-16.712-20.339-12.1,0-20.92,12.264-20.92,25.529,0,11.7,7.174,21.241,18.376,21.241C84.584,64.553,91.657,61.247,94.623,55.576ZM78.893,20.648c4.609,0,6.593,5.931,6.593,16.392H71.318C71.318,23.854,75.446,20.648,78.893,20.648Zm52.722,41.52c-1.323-.581-2.886-2.725-4.368-5.431l-9.639-19.017,7.494-9.979c2.064-2.966,3.948-5.431,6.092-6.913l1.323-.9a5.673,5.673,0,0,0-.08-1.162H119.752a3.279,3.279,0,0,0-.16,1.062l2.545,1.242a2.757,2.757,0,0,1,1.643,2.465,4.623,4.623,0,0,1-1.062,2.725l-6.432,8.476-5.35-10.38c-.982-1.9-.741-2.545.741-3.286l2.886-1.242a2.259,2.259,0,0,0,0-1.062H92.82a5.112,5.112,0,0,0-.08,1.062l1.242.5c1.162.5,2.3,2.144,3.547,4.529l9.639,19.117L98.35,55.756a31.169,31.169,0,0,1-5.511,5.931l-1.323.9a2.919,2.919,0,0,0,.16,1.162h12.845a2.969,2.969,0,0,0,.24-1.062l-2.545-1.242a2.452,2.452,0,0,1-1.4-2.224,7.3,7.3,0,0,1,1.643-3.787l6.092-8.316,5.511,11.041c.741,1.4.982,2.545-.421,3.286l-2.725,1.242a2.258,2.258,0,0,0,0,1.062h21.822a4.69,4.69,0,0,0,0-1.062Z" transform="translate(0 -12.641)" fill="#1c1c1c"/>
    </g>
  </g>
  <g id="Group_4" data-name="Group 4" transform="translate(37.472 0)">
    <g id="Group_3" data-name="Group 3">
      <path id="Path_30" data-name="Path 30" d="M205.856,51.8c0,2.224-13.586,2.385-13.506,0l.24-10.961V5.511H187v-1.4A30.163,30.163,0,0,1,200.827-.1,4.443,4.443,0,0,1,205.6,4.669v36.15Z" transform="translate(-187 0.1)" fill="#1c1c1c"/>
    </g>
  </g>
</svg>