<svg xmlns="http://www.w3.org/2000/svg" width="262.932" height="46.66" viewBox="0 0 262.932 46.66">
  <path id="Path_1118" data-name="Path 1118" d="M200.028,27.945h15.529V19H200.028V11.1h21.319V1.1h-32.9V7.942a26.78,26.78,0,0,1,4.738,13.949A26.466,26.466,0,0,1,188.974,39c-.263.263-.526.526-.526.79v6.317H221.61v-10H200.028V27.945ZM128.966,1.889v44.48h10.791V1.362H129.229c-.263-.263-.263.263-.263.526M58.429,27.945H73.958V19H58.429V11.1H79.748V1.1h-32.9V46.105H80.011v-10H58.692l-.263-8.159ZM21.319,1.1H0V46.369H21.056c8.159,0,13.949-3.422,17.9-9.212C44.743,29,43.427,14.785,37.111,7.942,33.689,3.994,29.478,1.1,21.319,1.1m-.79,35.531H11.317V17.154H5v-5.79H20.529c15.265-.263,16.318,25.267,0,25.267M166.866,1.1H145.547V46.369H166.6c8.159,0,13.949-3.422,17.9-9.212,5.79-8.159,4.474-22.372-1.842-29.215C178.973,3.994,175.288,1.1,166.866,1.1M165.813,36.63H156.6V17.154h-6.317v-5.79h15.528c15.529-.263,16.581,25.267,0,25.267M252.4,29.261c7.633-2.369,10.791-12.9,6.58-20.529C253.983-.48,247.93,1.1,225.821,1.1V46.632h10.528V31.367h4.474l8.949,14.739h13.16L252.4,29.261Zm-3.422-8.685c-1.053,1.842-3.422,2.106-6.317,2.106h-6.054V11.1h6.054c2.9.263,5.527.526,6.317,2.632a6.32,6.32,0,0,1,0,6.843M97.645,11.627c6.317-3.158,14.476-.263,16.844,4.738a95.677,95.677,0,0,1,10.265-2.9c-2.9-8.685-11.581-14.213-22.9-13.423A22.68,22.68,0,0,0,80.538,21.1v1.842h0v.526h0v1.842a22.68,22.68,0,0,0,21.319,21.056c11.317.79,20-4.738,22.9-13.423a65.692,65.692,0,0,1-10.265-2.9c-2.369,5-10.528,7.9-16.844,4.737-4.211-2.106-6.053-6.58-6.317-11.317h0v-.526h0c.263-4.474,2.106-9.212,6.317-11.317" transform="translate(0 0.028)" fill="#fff"/>
</svg>
