
<svg id="Group_1230" data-name="Group 1230" xmlns="http://www.w3.org/2000/svg" xmlns:xlink="http://www.w3.org/1999/xlink" width="326.662" height="331.831" viewBox="0 0 326.662 331.831">
  <defs>
    <clipPath id="clip-path">
      <rect id="Rectangle_1210" data-name="Rectangle 1210" width="326.662" height="331.831" fill="none"/>
    </clipPath>
  </defs>
  <g id="Group_1036" data-name="Group 1036" clip-path="url(#clip-path)">
    <path id="Path_1212" data-name="Path 1212" d="M301.729,204.257l-12.084-56.6L325.9,101.864H295.157l-16.112,12.085,2.758-12.3H268.921L317.34,1.1l.192-.511H290.185L276.62,10.337,276.194.585H248.212L237.4,8.64,236.551.372H158.114l-4.027,2.12,1.059-2.12L127.375.585l-10.81,7.843L115.077.372H84.765L59.327,20.723l-20.905,76.8-.846-1.437L15.284,121.734l6.523,59.417L9.514,224.821H32.073l-2.546,2.022L.484,331.146H28.468l26.288-20.14,3.815-11.659a81.662,81.662,0,0,0,8.691-.212,78.778,78.778,0,0,0,7.844-1.484s-2.76,13.274.851,20.352c4.872,9.558,13.352,12.3,24.162,13.143,9.756.848,15.15-.174,24.169-3.181,8.215-2.735,19.5-10.6,19.5-10.6s5.267,7.009,9.964,9.754c5.245,3.066,9.007,3.433,15.051,4.027,9.593.942,15.476-.212,24.377-4.027,9.542-4.029,25.652-15.053,25.652-15.053L214.175,330.3h26.5l25.861-19.716,18.235-63.809L306.6,228.116l5.512-20.139H297.088Zm-227.9-90.513-1.05.84-.076-2.3.83-.612Zm43.957,105.412c.586-.3,1.179-.606,1.772-.925-1.013.728-1.626,1.192-1.626,1.192l-.146-.267" transform="translate(0.002 0.002)" fill="#191718" fill-rule="evenodd"/>
    <path id="Path_1213" data-name="Path 1213" d="M174.638,331.831c-1.836,0-3.765-.109-5.865-.317-5.965-.586-9.892-.972-15.2-4.075-4.226-2.47-8.808-8.213-9.857-9.569-1.83,1.247-11.87,7.971-19.306,10.447-8.742,2.912-14.327,4.067-24.318,3.2-9.553-.75-19.128-2.884-24.46-13.344-3.245-6.362-1.483-17.383-.994-20.029A73.845,73.845,0,0,1,67.3,299.5a78.944,78.944,0,0,1-8.464.22l-3.765,11.508L28.6,331.516H0L29.206,226.63l1.81-1.438H9.029l12.406-44.071L14.9,121.615,37.636,95.462l.661,1.124L59,20.512l.093-.075L84.637,0h30.75l1.437,7.783L127.256.218,155.749,0l-.816,1.631L158.025,0h78.863l.818,7.953L248.093.217h28.458l.411,9.422L290.069.217h28l-.381,1.011L269.513,101.285h12.754l-2.639,11.769L295.036,101.5h31.626L290.045,147.75l12.1,56.654-4,3.2H312.6l-5.669,20.716-.087.073L285.1,246.982,266.858,310.8l-.1.074L240.8,330.668H213.7l4.538-17.75c-3.389,2.278-16.661,11.061-24.909,14.542-7.193,3.083-12.395,4.371-18.692,4.371M143.876,316.86l.215.284c.052.069,5.276,6.981,9.854,9.656,5.169,3.022,8.824,3.381,14.88,3.977,9.176.9,15.056-.07,24.216-4,9.4-3.968,25.429-14.907,25.589-15.018l.809-.554-4.786,18.721h25.9l25.664-19.566,18.232-63.8.085-.072L306.28,227.91l5.355-19.563H296.04l5.282-4.235-12.073-56.548.109-.137,35.777-45.192H295.283l-16.816,12.612,2.876-12.824H268.336L317,.956H290.307L276.283,11.038,275.843.956h-27.5L237.1,9.326,236.221.743H158.208l-4.963,2.612,1.3-2.607L127.5.955,116.31,9.073,114.772.743H84.9l-25.242,20.2-21.1,77.534-1.03-1.75L15.672,121.856l6.513,59.327-.02.069L10,224.452h23.13l-3.28,2.607L.974,330.778H28.345l26.1-19.995,3.865-11.813.276.008a81.675,81.675,0,0,0,8.64-.21,78.931,78.931,0,0,0,7.8-1.475l.568-.139-.12.573c-.027.132-2.69,13.229.819,20.108,5.166,10.135,14.521,12.211,23.862,12.943,9.926.863,15.212-.225,24.024-3.163,8.071-2.687,19.3-10.474,19.41-10.553ZM117.81,219.98l-.534-.98.341-.172c.584-.3,1.173-.6,1.764-.921l.391.625c-1.007.724-1.616,1.185-1.618,1.187ZM72.433,115.335l-.108-3.235,1.484-1.094.414,2.9Zm.644-2.871.045,1.373.311-.248-.18-1.254Z" fill="#1a1818"/>
    <path id="Path_1214" data-name="Path 1214" d="M95.909,45.513l5.939,53.848h22.048L151.453,3.116H131.527L117.533,49.329,112.447,3.116H86.584L60.721,99.361h19.5Z" transform="translate(0.304 0.016)" fill="#fff" fill-rule="evenodd"/>
    <path id="Path_1215" data-name="Path 1215" d="M123.989,99.484H101.737l-.012-.11-5.87-53.233L80.317,99.484H60.561l.042-.155L86.49,2.993h26.068l.012.111,5.021,45.614L131.436,2.993h20.181l-.045.158Zm-22.031-.246H123.8l27.488-96H131.619L117.652,49.365l-.24-.022-5.075-46.1H86.679l-25.8,96h19.25L95.791,45.479l.24.021Z" transform="translate(0.303 0.015)" fill="#191718"/>
    <path id="Path_1216" data-name="Path 1216" d="M183.738,99.361,189.671,82.4H161.264l6.785-23.745h25.863L199,41.7H172.71l6.79-21.2h28.405L202.39,99.361h22.474L250.3,45.09l-5.511,54.271h21.627L313.053,3.116H292.7L268.958,51.025l4.665-47.909H251.577L229.1,50.178l4.664-47.062h-74.2L133.283,99.361Z" transform="translate(0.667 0.016)" fill="#fff" fill-rule="evenodd"/>
    <path id="Path_1217" data-name="Path 1217" d="M266.495,99.484H244.654l.014-.136L250.107,45.8,224.943,99.484H202.258l.01-.132,5.505-78.73H179.589L172.88,41.575h26.285L194,58.78H168.142l-6.713,23.5h28.417l-.058.164-5.963,17.042h-50.7l.042-.156L159.477,2.993H233.9l-.014.136L229.3,49.49l22.2-46.5h22.259l-.013.136-4.6,47.241L292.627,2.993h20.624l-.085.178Zm-21.567-.246h21.414l46.517-96H292.78L269.069,51.08l-.233-.067L273.488,3.24H251.656l-22.44,46.991-.234-.064,4.65-46.927H159.665l-26.221,96h50.207L189.5,82.525H161.1l.045-.158,6.811-23.834h25.864l5.013-16.712H172.542l.051-.161,6.817-21.285h28.627l-.01.133-5.505,78.73h22.264l25.405-54.2.234.064Z" transform="translate(0.666 0.015)" fill="#191718"/>
    <path id="Path_1218" data-name="Path 1218" d="M65.356,200.136l11.023-38.159,39.43-58.085h-22.9L71.29,138.233l-2.119-34.341H45.851L53.482,160.7l-10.6,39.431Z" transform="translate(0.215 0.52)" fill="#fff" fill-rule="evenodd"/>
    <path id="Path_1219" data-name="Path 1219" d="M65.45,200.259H42.723l.042-.155L53.358,160.7l-7.646-56.929H69.288l.007.117,2.1,33.96,21.455-34.077h23.2l-.131.193L76.493,162.03Zm-22.406-.246H65.265l11.014-38.1,39.3-57.893h-22.6L71.192,138.623l-2.136-34.607H45.993l7.616,56.7-.007.023Z" transform="translate(0.214 0.519)" fill="#191718"/>
    <path id="Path_1220" data-name="Path 1220" d="M296.79,103.891l-28.831,31.8,8.9-31.8H253.119l-28.407,96.244h24.8l12.929-42.61,7.846,42.61h26.074l-11.021-53.422,33.92-42.822Z" transform="translate(1.124 0.52)" fill="#fff" fill-rule="evenodd"/>
    <path id="Path_1221" data-name="Path 1221" d="M296.516,200.259H270.188l-.018-.1-7.755-42.113-12.808,42.213h-25.06l.047-.158,28.433-96.334h24l-.044.157-8.763,31.3,28.516-31.454h22.783l-.158.2-33.885,42.778Zm-26.122-.246h25.82l-11-53.33.035-.044,33.762-42.623H296.845l-28.793,31.759-.21-.116,8.86-31.644h-23.49l-28.334,96h24.547l12.9-42.524.239.014Z" transform="translate(1.123 0.519)" fill="#191718"/>
    <path id="Path_1222" data-name="Path 1222" d="M170.485,112.813c-1.91-8.9-7.845-11.235-11.449-11.659a57.293,57.293,0,0,0-13.568-1.271,52.107,52.107,0,0,0-9.326.423,36.3,36.3,0,0,0-12.506,3.6,30.757,30.757,0,0,0-7.211,4.663c-4.8,4-9.751,12.72-9.751,12.72L89.716,183.619s-1.633,7.952.846,11.872c1.505,2.381,3.122,3.182,5.515,4.664,4.4,2.73,7.587,3.1,12.716,3.816,5.734.807,9.127.522,14.842-.423,4.748-.785,7.516-1.337,11.869-3.393a33.156,33.156,0,0,0,8.481-5.51c3.937-3.347,8.478-9.754,8.478-10.176,0,0,8.9-31.8,8.9-31.376l6.787-23.742c-.428,0,3.6-11.66,2.33-16.537m-25.863,13.781-1.908,7.632s-12.085,44.094-12.3,43.882c-.634-.637-.415,1.344-.847,2.121a6.98,6.98,0,0,1-2.543,2.757c-1.7,1.134-3.045,1.177-5.088,1.271-1.66.075-2.754.319-4.241-.425a4.513,4.513,0,0,1-2.542-2.544c-.616-1.536.21-4.239.21-4.239L131.056,123.2a12.972,12.972,0,0,1,2.12-1.909,9.235,9.235,0,0,1,3.178-1.272,9.663,9.663,0,0,1,3.813-.424c1.7.179,2.905.418,4.029,1.7a3.741,3.741,0,0,1,1.06,1.909,7.269,7.269,0,0,1-.634,3.391" transform="translate(0.446 0.5)" fill="#fff" fill-rule="evenodd"/>
    <path id="Path_1223" data-name="Path 1223" d="M114.866,204.569a42.918,42.918,0,0,1-6.09-.474l-.549-.077c-4.789-.669-7.953-1.113-12.216-3.756-.267-.166-.525-.323-.774-.474a12.386,12.386,0,0,1-4.78-4.229c-1.3-2.052-1.463-5.2-1.372-7.477a31.109,31.109,0,0,1,.509-4.485l16.96-62.333c.061-.116,5.026-8.814,9.791-12.782a30.808,30.808,0,0,1,7.236-4.679,36.311,36.311,0,0,1,12.541-3.617,48.809,48.809,0,0,1,8.72-.431l1.444.015a55.631,55.631,0,0,1,12.771,1.266c2.778.326,9.48,2.128,11.545,11.752.908,3.486-.859,10.376-1.809,14.078-.284,1.11-.534,2.081-.55,2.364h.073l-.045.158-6.787,23.742-.071-.01.057.033c-.218.463-5.908,20.705-8.888,31.348-.139.7-4.739,7.027-8.519,10.24a33.17,33.17,0,0,1-8.507,5.529c-4.459,2.106-7.287,2.64-11.9,3.4a52.363,52.363,0,0,1-8.789.9M142.621,99.983a41.354,41.354,0,0,0-6.462.445,36.1,36.1,0,0,0-12.469,3.594,30.576,30.576,0,0,0-7.186,4.648c-4.732,3.939-9.673,12.6-9.722,12.685l-16.947,62.3c-.014.071-1.593,7.94.832,11.774a12.187,12.187,0,0,0,4.7,4.15q.374.228.776.475c4.218,2.617,7.362,3.056,12.119,3.723l.549.076c5.7.8,9.029.532,14.8-.423,4.594-.759,7.408-1.29,11.837-3.382a32.969,32.969,0,0,0,8.454-5.494,48.841,48.841,0,0,0,8.435-10.087c.005-.027,2.2-7.876,4.414-15.723,1.105-3.924,2.215-7.847,3.055-10.788.995-3.486,1.3-4.545,1.438-4.858h0c.005-.011.009-.021.014-.03l-.013,0,6.77-23.681a8.962,8.962,0,0,1,.538-2.576c.944-3.681,2.7-10.533,1.809-13.957v-.005c-2.031-9.472-8.61-11.241-11.343-11.563a55.006,55.006,0,0,0-12.735-1.263L144.842,100c-.805-.008-1.533-.016-2.221-.016M120,184.48a4.942,4.942,0,0,1-2.355-.537,4.642,4.642,0,0,1-2.6-2.608c-.625-1.559.173-4.209.207-4.322l15.7-53.871.019-.021a12.864,12.864,0,0,1,2.146-1.931,9.345,9.345,0,0,1,3.214-1.287l.07-.017a9.552,9.552,0,0,1,3.785-.41c1.665.176,2.936.4,4.109,1.738a3.874,3.874,0,0,1,1.087,1.965,7.235,7.235,0,0,1-.637,3.456l-1.906,7.621c-12.025,43.878-12.285,43.948-12.383,43.974l-.068.018-.053-.051c-.094-.094-.13-.087-.128-.088-.094.032-.164.552-.206.862a4.1,4.1,0,0,1-.319,1.32,7.1,7.1,0,0,1-2.581,2.8c-1.7,1.133-3.031,1.194-5.045,1.287l-.108.005c-.278.012-.541.03-.792.046-.406.027-.785.052-1.154.052m11.17-61.215-15.683,53.82c-.008.028-.807,2.681-.215,4.159a4.437,4.437,0,0,0,2.483,2.479,5.854,5.854,0,0,0,3.383.459c.253-.017.517-.034.8-.047l.108-.005c1.973-.091,3.275-.152,4.919-1.246a6.876,6.876,0,0,0,2.5-2.715,3.968,3.968,0,0,0,.289-1.231c.076-.571.132-.982.373-1.063a.288.288,0,0,1,.248.04c.771-2.12,8.26-29.263,12.223-43.722l1.915-7.648a7.188,7.188,0,0,0,.626-3.317,3.627,3.627,0,0,0-1.031-1.852c-1.116-1.267-2.341-1.485-3.951-1.656a9.422,9.422,0,0,0-3.7.4l-.07.018a9.142,9.142,0,0,0-3.143,1.257,12.65,12.65,0,0,0-2.074,1.865" transform="translate(0.446 0.499)" fill="#191718"/>
    <path id="Path_1224" data-name="Path 1224" d="M194.955,200.136h24.167L229.3,164.1s1.541-4.854,0-7.209a8.028,8.028,0,0,0-2.964-2.543,22.264,22.264,0,0,0-3.819-1.7,58.559,58.559,0,0,0,5.939-2.969,21.311,21.311,0,0,0,4.661-3.39,28.344,28.344,0,0,0,2.122-2.545l7.631-25.864a17.312,17.312,0,0,0,0-5.511,9.536,9.536,0,0,0-2.334-4.452,11.65,11.65,0,0,0-4.025-2.968,25.006,25.006,0,0,0-2.545-1.059h-52.15l-26.288,96.244H178.42l11.448-39.005h10.175s3.1.577,3.817,2.119a5.682,5.682,0,0,1,0,2.968Zm.213-56.39,7-22.472h9.113a8.427,8.427,0,0,1,1.909,0,3.369,3.369,0,0,1,1.909.847c.836.754.681,1.646.847,2.758.394,2.58-.631,4.04-1.27,6.572a32.044,32.044,0,0,1-1.909,6.147c-.815,1.825-1.052,3.121-2.545,4.453a12.966,12.966,0,0,1-2.968,1.7Z" transform="translate(0.778 0.52)" fill="#fff" fill-rule="evenodd"/>
    <path id="Path_1225" data-name="Path 1225" d="M219.216,200.26H194.8l.04-.155,8.9-33.919a5.577,5.577,0,0,0,.007-2.884c-.685-1.467-3.7-2.045-3.728-2.05l-10.059,0L178.512,200.26H155.365l.042-.156,26.313-96.336,52.283.007a25.4,25.4,0,0,1,2.561,1.066,11.731,11.731,0,0,1,4.061,3,9.658,9.658,0,0,1,2.36,4.5,17.19,17.19,0,0,1,0,5.562l-7.654,25.917a28.642,28.642,0,0,1-2.133,2.559,18.638,18.638,0,0,1-4.022,3l-.663.406a55.583,55.583,0,0,1-5.666,2.851,20.855,20.855,0,0,1,3.55,1.6l.374.236a7.253,7.253,0,0,1,2.626,2.344c1.555,2.376.078,7.112.014,7.313Zm-24.1-.247h23.914l10.15-35.949c.016-.052,1.506-4.829.015-7.107a6.987,6.987,0,0,0-2.551-2.27l-.376-.237a22.286,22.286,0,0,0-3.792-1.682l-.306-.1.3-.127a59.1,59.1,0,0,0,5.922-2.962l.664-.406a18.291,18.291,0,0,0,3.975-2.966,27.794,27.794,0,0,0,2.1-2.514l7.625-25.843a17.33,17.33,0,0,0,0-5.446,9.459,9.459,0,0,0-2.307-4.4,11.546,11.546,0,0,0-3.991-2.94,24.479,24.479,0,0,0-2.508-1.045H181.907l-26.221,96h22.642l11.449-39.005h10.265c.152.026,3.19.609,3.93,2.19a5.71,5.71,0,0,1,.007,3.05Zm12.161-56.143H195l.049-.16,7.023-22.558h9.2a8.381,8.381,0,0,1,1.931,0,3.473,3.473,0,0,1,1.969.875,2.776,2.776,0,0,1,.807,2.1c.02.234.041.476.079.73a8.875,8.875,0,0,1-.657,4.618c-.211.621-.429,1.262-.615,2-.094.373-.181.722-.262,1.053a26.568,26.568,0,0,1-1.653,5.113c-.185.414-.339.8-.487,1.168a7.67,7.67,0,0,1-2.088,3.328,12.893,12.893,0,0,1-3,1.718Zm-11.939-.246h11.89a12.7,12.7,0,0,0,2.91-1.664,7.47,7.47,0,0,0,2.023-3.235c.15-.373.3-.759.491-1.177a26.375,26.375,0,0,0,1.639-5.072c.081-.333.168-.681.261-1.053.19-.75.409-1.4.622-2.022a8.673,8.673,0,0,0,.647-4.5c-.039-.261-.061-.508-.081-.746a2.55,2.55,0,0,0-.727-1.939,3.222,3.222,0,0,0-1.848-.817,8.324,8.324,0,0,0-1.872,0h-9.037Z" transform="translate(0.777 0.519)" fill="#191718"/>
    <path id="Path_1226" data-name="Path 1226" d="M104,260.564c5.708-12.35,9.751-33.495,9.751-33.495s1.277-4.028.428-6.572c-.428-1.7-.073-2.986-.849-4.664a9.441,9.441,0,0,0-2.968-3.6c-1.521-1.3-2.542-1.483-4.452-2.544H56.093l-26.92,96.246H51.645l8.9-29.257s17.6.849,22.259,0a28.419,28.419,0,0,0,9.329-3.18c3.768-1.966,6.129-3.182,8.691-6.572,1.671-2.21,2.017-3.841,3.178-6.36m-17.53-27.559a21.961,21.961,0,0,1-.849,4.241s-1.837,7.621-3.6,12.294c-.761,2.011-.856,3.349-2.12,5.088a9.8,9.8,0,0,1-5.3,4.027,13.324,13.324,0,0,1-4.666.636,10.925,10.925,0,0,1-3.815-.211,13.316,13.316,0,0,1-2.337-1.061l8.906-30.95s7.164-1.893,11.021,0a5.5,5.5,0,0,1,2.335,1.484c1.09,1.361.5,2.709.425,4.451" transform="translate(0.146 1.049)" fill="#fff" fill-rule="evenodd"/>
    <path id="Path_1227" data-name="Path 1227" d="M51.737,306.054H29.012l.043-.156L56,209.562h49.945l.028.016c.649.36,1.2.623,1.694.855a10.958,10.958,0,0,1,2.779,1.7,9.613,9.613,0,0,1,3,3.647,7.307,7.307,0,0,1,.6,2.789,10.562,10.562,0,0,0,.259,1.9c.849,2.544-.378,6.473-.43,6.639-.036.2-4.107,21.286-9.756,33.51-.341.738-.608,1.392-.866,2.024A17.224,17.224,0,0,1,100.925,267c-2.561,3.388-4.983,4.651-8.65,6.564l-.083.043a28.411,28.411,0,0,1-9.365,3.192c-4.443.808-20.779.071-22.19.006Zm-22.4-.246H51.554l8.9-29.261.1,0c.176.009,17.636.839,22.231,0a28.171,28.171,0,0,0,9.294-3.168l.083-.042c3.766-1.965,6.04-3.151,8.567-6.493a17.039,17.039,0,0,0,2.3-4.3c.258-.634.527-1.29.869-2.034,5.636-12.2,9.7-33.255,9.742-33.467.016-.054,1.258-4.034.432-6.509a10.741,10.741,0,0,1-.268-1.948,7.124,7.124,0,0,0-.576-2.7,9.4,9.4,0,0,0-2.936-3.563,10.708,10.708,0,0,0-2.725-1.666c-.486-.231-1.037-.491-1.68-.847H56.187Zm38.805-46.331a7.182,7.182,0,0,1-2.051-.278,13.165,13.165,0,0,1-2.365-1.073l-.083-.047.027-.093,8.925-31.017.067-.018c.294-.077,7.252-1.883,11.106.009.2.1.39.183.57.263a4.167,4.167,0,0,1,1.806,1.255,3.889,3.889,0,0,1,.571,3.293c-.049.4-.1.8-.119,1.239a21.765,21.765,0,0,1-.853,4.272c-.017.069-1.858,7.674-3.6,12.3-.23.609-.4,1.15-.559,1.673A10.448,10.448,0,0,1,80,254.7a9.876,9.876,0,0,1-5.359,4.071,12.3,12.3,0,0,1-4.284.632l-.419.011c-.282.008-.543.02-.789.031-.355.016-.684.031-1.011.031m-4.209-1.518a12.516,12.516,0,0,0,2.224,1,8.3,8.3,0,0,0,2.985.238c.247-.011.51-.023.793-.031l.419-.011a12.114,12.114,0,0,0,4.211-.618,9.664,9.664,0,0,0,5.24-3.984,10.264,10.264,0,0,0,1.54-3.372c.163-.527.331-1.071.564-1.687,1.741-4.613,3.579-12.2,3.6-12.279A21.952,21.952,0,0,0,86.351,233c.018-.444.069-.858.12-1.259a3.7,3.7,0,0,0-.519-3.109,3.975,3.975,0,0,0-1.716-1.184c-.181-.082-.373-.168-.577-.267-3.573-1.755-10.13-.192-10.867-.009Z" transform="translate(0.145 1.048)" fill="#191718"/>
    <path id="Path_1228" data-name="Path 1228" d="M171.492,259.519l7.209-25.44c-.422,0,2.978-8.647,1.7-13.992-.7-2.915-.849-5.723-3.18-7a33.507,33.507,0,0,0-7.847-4.241c-4.4-1.6-7.187-1.677-11.87-1.907a47.944,47.944,0,0,0-13.144.848,41.217,41.217,0,0,0-9.537,2.757,34.251,34.251,0,0,0-10.6,6.359,56.535,56.535,0,0,0-6.148,6.785L99.207,288.986s-.784,8.258,1.905,12.3c1.592,2.389,3.085,3.346,5.513,4.876,4.364,2.75,7.613,2.9,12.718,3.6a43.692,43.692,0,0,0,14.839-.211c4.759-.752,7.533-1.306,11.871-3.391a30.011,30.011,0,0,0,8.48-5.724,43.1,43.1,0,0,0,7.63-10.176s9.328-31.163,9.328-30.738m-16.318-26.925-1.912,7.633s-12.082,44.094-12.3,43.882c-.635-.636-.635,3.392-3.392,4.876a14.807,14.807,0,0,1-5.088,1.906,13.476,13.476,0,0,1-6.36-1.058c-3.182-1.485-1.908-7.208-1.908-7.208l14.841-50.879s1.7-3.816,3.392-4.664c2.543-1.272,4.62-2.187,7.633-1.7,1.759.287,3.816.848,4.238,1.7a5.55,5.55,0,0,1,.851,5.511" transform="translate(0.496 1.035)" fill="#fff" fill-rule="evenodd"/>
    <path id="Path_1229" data-name="Path 1229" d="M126.14,310.421a49.131,49.131,0,0,1-6.814-.539c-.565-.077-1.107-.148-1.63-.216-4.2-.549-7.233-.945-11.137-3.4-2.364-1.489-3.926-2.474-5.55-4.911-2.681-4.027-1.933-12.292-1.927-12.375l18.876-65.34.014-.018a57.124,57.124,0,0,1,6.167-6.8,34.377,34.377,0,0,1,10.634-6.379,41.308,41.308,0,0,1,9.563-2.765,48.051,48.051,0,0,1,13.174-.85l.538.026c4.44.217,7.117.348,11.368,1.888a33.278,33.278,0,0,1,7.814,4.216l.059.039c1.966,1.071,2.42,3.252,2.9,5.562.1.491.208,1,.332,1.508.925,3.863-.545,9.316-1.334,12.246a16.047,16.047,0,0,0-.4,1.651h.076l-7.255,25.6-.075-.01.059.036c-.233.465-6.19,20.282-9.308,30.7-.111.687-4.083,6.955-7.669,10.24a29.922,29.922,0,0,1-8.509,5.745c-4.251,2.043-7.02,2.63-11.905,3.4a50.211,50.211,0,0,1-8.062.751m-7.958-86.672L99.324,289.021c0,.059-.743,8.239,1.89,12.192,1.595,2.395,3.139,3.368,5.476,4.841,3.858,2.431,6.869,2.824,11.038,3.369.524.067,1.066.139,1.632.216a43.348,43.348,0,0,0,14.8-.211c4.862-.768,7.615-1.352,11.839-3.381a29.7,29.7,0,0,0,8.448-5.7,43.306,43.306,0,0,0,7.593-10.087l0-.032s2.3-7.69,4.618-15.378c1.159-3.845,2.321-7.688,3.2-10.57,1.077-3.525,1.379-4.516,1.518-4.787l-.01,0,7.191-25.372c-.069-.147.018-.5.386-1.872.783-2.908,2.24-8.322,1.331-12.124-.122-.511-.229-1.021-.332-1.515-.489-2.35-.915-4.379-2.789-5.4l-.068-.045a33.1,33.1,0,0,0-7.762-4.189c-4.215-1.529-6.879-1.658-11.294-1.874l-.539-.026a47.815,47.815,0,0,0-13.115.846,41.134,41.134,0,0,0-9.513,2.75A34.192,34.192,0,0,0,124.3,217a56.424,56.424,0,0,0-6.116,6.748m13.158,67.332a14.884,14.884,0,0,1-5.258-1.131c-1.354-.632-2.121-2.108-2.226-4.27a13.165,13.165,0,0,1,.242-3.08l14.842-50.887c.075-.173,1.74-3.881,3.456-4.739,2.615-1.31,4.7-2.2,7.707-1.707,1.4.229,3.831.762,4.33,1.763a5.725,5.725,0,0,1,.856,5.607l-1.908,7.622c-.03.112-3.035,11.079-6.037,21.915C141.25,284.163,141.118,284.2,141,284.23l-.068.018-.052-.05a.1.1,0,0,0-.043-.032,2.733,2.733,0,0,0-.39.89c-.4,1.159-1.065,3.1-2.814,4.039-.186.093-.379.193-.581.3a12.938,12.938,0,0,1-4.551,1.622,10.386,10.386,0,0,1-1.16.065m17.143-65.7a12.968,12.968,0,0,0-5.977,1.817c-1.638.818-3.32,4.566-3.336,4.6l-14.835,50.864c-.01.049-1.214,5.636,1.84,7.061a13.374,13.374,0,0,0,6.3,1.049,12.74,12.74,0,0,0,4.465-1.6c.2-.106.4-.206.58-.3,1.661-.893,2.308-2.775,2.693-3.9.221-.644.344-1,.572-1.051a.241.241,0,0,1,.132.007c.736-1.984,8.255-29.239,12.229-43.737l1.92-7.655a5.488,5.488,0,0,0-.84-5.386c-.334-.665-1.884-1.274-4.159-1.645a9.811,9.811,0,0,0-1.581-.133" transform="translate(0.495 1.034)" fill="#191718"/>
    <path id="Path_1230" data-name="Path 1230" d="M247.951,226.221H263l-22.472,79.711h22.259l22.471-78.863h16.111l5.088-17.384H252.4Z" transform="translate(1.203 1.049)" fill="#fff" fill-rule="evenodd"/>
    <path id="Path_1231" data-name="Path 1231" d="M262.885,306.054H240.37l.044-.157,22.428-79.553H247.791l.041-.156,4.478-16.627h54.315l-.045.158-5.115,17.472H285.356Zm-22.189-.246h22l22.471-78.863h16.112l5.016-17.136H252.5L248.112,226.1h15.056l-.044.157Z" transform="translate(1.203 1.048)" fill="#191718"/>
    <path id="Path_1232" data-name="Path 1232" d="M228.4,259.732c-2.332-3.512-4.336-4.972-7.208-8.056-3.068-3.294-5.113-4.857-8.053-8.267-2-2.319-3.684-3.332-4.879-6.148-1.019-2.4-1.7-4-1.269-6.573a5.911,5.911,0,0,1,1.48-3.6c.943-1,1.864-1.116,3.181-1.484a7.984,7.984,0,0,1,3.606-.423,5.8,5.8,0,0,1,3.813,1.907,5.472,5.472,0,0,1,1.7,2.968c.354,1.532-.06,2.463-.213,4.028a27.5,27.5,0,0,1-.639,4.24,34.687,34.687,0,0,1-1.269,3.816h22.469s1.532-5.406,2.332-8.9c.754-3.287,1.669-5.106,1.7-8.48.038-3.794.119-6.328-1.91-9.539a13.321,13.321,0,0,0-4.871-4.662,19.577,19.577,0,0,0-6.575-2.545,36.788,36.788,0,0,0-7.632-1.061,39.333,39.333,0,0,0-9.961,0c-2.184.313-3.363.789-5.512,1.272-2.642.595-4.242.544-6.785,1.484a28.066,28.066,0,0,0-7,4.028,34.37,34.37,0,0,0-5.512,4.451,20.494,20.494,0,0,0-4.242,5.088,23.744,23.744,0,0,0-2.12,5.723,33.656,33.656,0,0,0-1.269,5.512c-.377,2.7-.719,4.314-.213,7a19.052,19.052,0,0,0,1.909,5.088c1.948,4.2,4.02,6.034,6.782,9.752,2.006,2.693,3.148,4.211,5.3,6.783,2.07,2.469,3.46,3.667,5.508,6.148a28.274,28.274,0,0,1,3.183,4.03,12.818,12.818,0,0,1,2.119,4.875,10.3,10.3,0,0,1-.212,5.3,7.521,7.521,0,0,1-1.907,3.816,7.148,7.148,0,0,1-4.663,2.333,7.325,7.325,0,0,1-5.3-.847,5.96,5.96,0,0,1-2.757-2.546,6.885,6.885,0,0,1-.632-3.815,16.337,16.337,0,0,1,.847-4.239c.363-1.584,1.059-4.029,1.059-4.029H169.469s-.851,2.045-1.275,3.393a48.461,48.461,0,0,0-1.271,5.511c-.669,3.206-1.548,4.993-1.483,8.268a16.475,16.475,0,0,0,1.483,7.208,13.825,13.825,0,0,0,3.391,5.087,16.191,16.191,0,0,0,5.089,3.18,28.5,28.5,0,0,0,9.749,2.755,40.352,40.352,0,0,0,11.45,0,42.576,42.576,0,0,0,12.3-2.543,37.756,37.756,0,0,0,8.478-4.24,31.329,31.329,0,0,0,7.208-5.724,26.254,26.254,0,0,0,5.3-7.844,28.718,28.718,0,0,0,2.755-9.54c.649-4.586,1-7.4-.213-11.872-.918-3.39-2.083-5.13-4.027-8.055" transform="translate(0.828 1.034)" fill="#fff" fill-rule="evenodd"/>
    <path id="Path_1233" data-name="Path 1233" d="M190.344,310.085a34.763,34.763,0,0,1-5.21-.412,28.658,28.658,0,0,1-9.785-2.766q-.378-.185-.727-.351a14.118,14.118,0,0,1-7.813-7.979,16.651,16.651,0,0,1-1.492-7.254,18.732,18.732,0,0,1,.851-5.691c.212-.8.431-1.634.634-2.6.113-.541.207-1.024.3-1.477a32.8,32.8,0,0,1,.98-4.046c.419-1.338,1.27-3.383,1.278-3.4l.031-.075h23.563l-.044.157c-.007.024-.7,2.459-1.058,4.022-.115.494-.235.916-.352,1.324a9.544,9.544,0,0,0-.491,2.888l0,.436a6.029,6.029,0,0,0,.619,3.321,5.888,5.888,0,0,0,2.709,2.5,7.134,7.134,0,0,0,5.221.832,7.044,7.044,0,0,0,4.592-2.3,7.357,7.357,0,0,0,1.876-3.763,10.123,10.123,0,0,0,.211-5.244,11.959,11.959,0,0,0-1.921-4.529l-.183-.305a17.391,17.391,0,0,0-2.152-2.833c-.32-.362-.65-.737-1.021-1.182-1.052-1.275-1.951-2.231-2.819-3.157-.827-.88-1.682-1.791-2.688-2.99-2.161-2.58-3.305-4.1-5.306-6.788-.8-1.078-1.534-1.985-2.242-2.862a30.443,30.443,0,0,1-4.554-6.912c-.142-.308-.277-.594-.406-.866a15.588,15.588,0,0,1-1.511-4.25,16.635,16.635,0,0,1,.091-6.193c.038-.27.079-.551.12-.843a33.908,33.908,0,0,1,1.273-5.531c.1-.344.194-.666.282-.973a19.7,19.7,0,0,1,1.848-4.776,18.334,18.334,0,0,1,3.736-4.6l.528-.52a34.614,34.614,0,0,1,5.53-4.465c.315-.217.613-.424.9-.624a24.468,24.468,0,0,1,6.122-3.418,20.366,20.366,0,0,1,4.245-1.019c.786-.125,1.6-.254,2.556-.469.789-.178,1.442-.353,2.073-.523a26.91,26.91,0,0,1,3.448-.752,35.892,35.892,0,0,1,9.047-.074l1.788.138a32.9,32.9,0,0,1,6.807,1l.376.1a18.8,18.8,0,0,1,6.234,2.461,13.39,13.39,0,0,1,4.909,4.7c2,3.159,1.971,5.61,1.933,9.319l0,.287a20.124,20.124,0,0,1-1,5.845c-.232.82-.471,1.668-.7,2.66-.792,3.462-2.319,8.857-2.334,8.911l-.025.089H218.469l.067-.169a35.049,35.049,0,0,0,1.264-3.8,26.5,26.5,0,0,0,.619-4.056l.017-.168c.045-.469.114-.875.18-1.268a6.31,6.31,0,0,0,.035-2.721,5.318,5.318,0,0,0-1.667-2.908,5.692,5.692,0,0,0-3.741-1.872,7.847,7.847,0,0,0-3.558.42c-.191.053-.373.1-.549.148a4.665,4.665,0,0,0-2.576,1.3,5.754,5.754,0,0,0-1.448,3.54c-.422,2.536.246,4.109,1.256,6.492a12.788,12.788,0,0,0,3.143,4.3c.55.555,1.118,1.129,1.722,1.83,1.671,1.94,3.046,3.273,4.5,4.685,1.094,1.061,2.227,2.159,3.548,3.578.878.943,1.665,1.724,2.426,2.479a32.79,32.79,0,0,1,4.795,5.593l.038.058c1.926,2.9,3.088,4.647,4.006,8.033,1.195,4.4.9,7.114.216,11.921A28.7,28.7,0,0,1,230,289.252a26.488,26.488,0,0,1-5.32,7.876,31.538,31.538,0,0,1-7.233,5.744,37.883,37.883,0,0,1-8.5,4.251,42.342,42.342,0,0,1-12.328,2.55c-2.468.242-4.356.412-6.27.412m-20.791-35.813c-.158.383-.869,2.125-1.24,3.305a33.26,33.26,0,0,0-.973,4.02c-.088.454-.183.939-.3,1.48-.205.977-.425,1.811-.637,2.617a18.558,18.558,0,0,0-.843,5.624,16.449,16.449,0,0,0,1.472,7.162,13.657,13.657,0,0,0,3.365,5.047,13.984,13.984,0,0,0,4.329,2.807c.232.112.475.227.729.351a28.421,28.421,0,0,0,9.712,2.744,40.215,40.215,0,0,0,11.42,0,42.145,42.145,0,0,0,12.267-2.536,37.667,37.667,0,0,0,8.455-4.229,31.291,31.291,0,0,0,7.184-5.7,25.993,25.993,0,0,0,5.279-7.812,28.534,28.534,0,0,0,2.745-9.5c.675-4.775.973-7.468-.21-11.822-.906-3.349-2.061-5.085-3.973-7.963l-.038-.057a32.6,32.6,0,0,0-4.764-5.555c-.762-.758-1.551-1.54-2.432-2.486-1.318-1.414-2.447-2.51-3.54-3.569-1.459-1.416-2.838-2.754-4.516-4.7-.6-.694-1.163-1.265-1.71-1.818a12.959,12.959,0,0,1-3.19-4.362c-1.032-2.435-1.711-4.035-1.277-6.641A6.022,6.022,0,0,1,208.382,227a4.918,4.918,0,0,1,2.691-1.372c.175-.045.356-.093.546-.147a8.04,8.04,0,0,1,3.654-.427A5.913,5.913,0,0,1,219.159,227a5.6,5.6,0,0,1,1.733,3.027,6.5,6.5,0,0,1-.033,2.817c-.064.389-.132.791-.177,1.251l-.017.168a26.553,26.553,0,0,1-.625,4.089,33.24,33.24,0,0,1-1.209,3.664h22.2c.2-.72,1.571-5.6,2.3-8.81.229-1,.47-1.849.7-2.672a19.874,19.874,0,0,0,.993-5.781l0-.286c.037-3.666.063-6.088-1.894-9.186a13.189,13.189,0,0,0-4.834-4.625,18.364,18.364,0,0,0-6.164-2.431l-.376-.1a32.743,32.743,0,0,0-6.762-.993l-1.79-.137a35.737,35.737,0,0,0-8.993.071,26.9,26.9,0,0,0-3.419.746c-.634.171-1.289.347-2.083.526-.964.217-1.781.347-2.571.472a19.852,19.852,0,0,0-4.2,1.007,23.962,23.962,0,0,0-6.067,3.389c-.286.2-.585.408-.9.625a34.321,34.321,0,0,0-5.5,4.437l-.528.521a18.087,18.087,0,0,0-3.693,4.541,19.559,19.559,0,0,0-1.827,4.723c-.087.308-.18.631-.282.975a33.852,33.852,0,0,0-1.265,5.5c-.04.293-.081.574-.121.844a16.262,16.262,0,0,0-.093,6.111,15.473,15.473,0,0,0,1.491,4.191c.13.273.265.561.408.869a30.246,30.246,0,0,0,4.521,6.86c.71.879,1.445,1.788,2.248,2.869,2,2.682,3.141,4.2,5.3,6.777,1,1.194,1.854,2.1,2.679,2.981.87.927,1.772,1.887,2.83,3.168.367.442.7.815,1.015,1.176a17.526,17.526,0,0,1,2.178,2.869l.183.305a12.13,12.13,0,0,1,1.952,4.611,10.445,10.445,0,0,1-.216,5.354,7.651,7.651,0,0,1-1.935,3.868,7.263,7.263,0,0,1-4.735,2.369,7.494,7.494,0,0,1-5.379-.861,6.1,6.1,0,0,1-2.8-2.594,6.232,6.232,0,0,1-.649-3.439l0-.435a9.789,9.789,0,0,1,.5-2.957c.116-.4.235-.822.349-1.311.308-1.338.857-3.311,1.017-3.877Z" transform="translate(0.827 1.033)" fill="#191718"/>
  </g>
</svg>
