<svg xmlns="http://www.w3.org/2000/svg" width="234.979" height="62.372" viewBox="0 0 234.979 62.372">
  <path id="Path_1117" data-name="Path 1117" d="M163.079,30.666v2.925a5.392,5.392,0,0,0,.639,2.925,2.083,2.083,0,0,0,1.811.975h.426a.794.794,0,0,0,.426-.108,2.1,2.1,0,0,0,1.811-1.517,11.194,11.194,0,0,0,.213-2.817,3.574,3.574,0,0,0-2.237-3.358,30.268,30.268,0,0,0-5.006-1.842c-.426-.108-.746-.217-1.172-.325s-.746-.217-1.172-.325c-.639-.217-1.278-.325-1.811-.542a6.092,6.092,0,0,1-1.491-.542c-3.089-1.3-5.006-3.033-5.859-5.308a20.215,20.215,0,0,1-1.278-7.15v-.325c0-4.333,1.385-7.583,4.154-9.966S159.458-.1,165.1.117a26.134,26.134,0,0,1,9.267,1.408,43.006,43.006,0,0,1,7.03,3.25v11.05H167.979V13.333a3.158,3.158,0,0,0-.746-2.492,2.251,2.251,0,0,0-1.7-.758h-.107a2.535,2.535,0,0,0-1.6.65,2.694,2.694,0,0,0-.852,1.517c0,.108-.107.325-.107.433v.433a3.405,3.405,0,0,0,1.811,3.142,14.282,14.282,0,0,0,3.941,1.517c.533.108,1.172.217,1.7.325s1.065.217,1.491.325c.107,0,.32.108.426.108a.794.794,0,0,1,.426.108c3.835.975,6.6,2.6,8.2,5.092a14.9,14.9,0,0,1,2.45,8.233c0,1.083-.107,2.167-.213,3.25a19.412,19.412,0,0,1-.852,3.358c-.959,3.358-2.663,5.525-5.113,6.717a24.374,24.374,0,0,1-7.882,2.167,17.133,17.133,0,0,1-2.343.217c-.746,0-1.491.108-2.237.108s-1.917-.108-3.3-.217a22.211,22.211,0,0,1-4.367-.867A34.132,34.132,0,0,1,152,44.966a6.788,6.788,0,0,1-3.2-2.6V30.449h14.274Zm37.388-17.55V35.324a6.874,6.874,0,0,0,.426,2.708,1.251,1.251,0,0,0,1.278,1.083v8.017H186.3V39.441c.639-.325,1.065-.65,1.172-1.192a10.71,10.71,0,0,0,.107-1.95V24.708a6.542,6.542,0,0,0-.213-1.842,1.579,1.579,0,0,0-.639-.975c0-.108-.107-.108-.107-.217l-.213-.217V13.333l14.06-.217ZM186.726,5.425a4.4,4.4,0,0,1,1.917-3.9A8.447,8.447,0,0,1,192.8.008c.213,0,.32-.108.533-.108h.533a8.376,8.376,0,0,1,4.58,1.3,4.64,4.64,0,0,1,2.13,4.225,4.64,4.64,0,0,1-2.13,4.225,9.334,9.334,0,0,1-5.006,1.3,7.068,7.068,0,0,1-4.687-1.625,4.5,4.5,0,0,1-2.024-3.9Zm31.529,7.692v3.142a19.772,19.772,0,0,0,.213,2.383,8.189,8.189,0,0,0,1.385,2.708,5.985,5.985,0,0,0,1.7-2.708,9.814,9.814,0,0,0,.32-2.383V13.116h13v7.692l-.639.542-.746.65c-.213.217-.533.433-.746.65a4.7,4.7,0,0,0-.639.758,2.861,2.861,0,0,0-.533.65c-.107.217-.32.433-.426.65l-4.154,4.983,4.58,6.392a6.74,6.74,0,0,0,.959,1.3c.32.325.533.758.852,1.083.213.217.533.433.746.65a2.127,2.127,0,0,0,.852.433v7.583H220.386V44.641a13.749,13.749,0,0,0-.213-2.275,8.01,8.01,0,0,0-.746-2.058l-.639-.975a6.977,6.977,0,0,0-.852-.975c-.213.325-.426.542-.639.867a2.728,2.728,0,0,0-.426.758,5.251,5.251,0,0,0-.746,2.167,21.036,21.036,0,0,0-.213,3.033v2.058H203.769V39.549a4.669,4.669,0,0,0,2.024-1.517c.746-.867,1.6-1.842,2.556-3.142l3.728-5.2L209.2,25.9a22.927,22.927,0,0,0-2.876-3.25,7.532,7.532,0,0,0-2.556-1.408V13.116ZM21.41,1.742c.426,0,.959.108,1.385.108.533,0,.959.108,1.385.108a16.944,16.944,0,0,1,8.2,3.575c2.45,1.95,3.728,4.983,3.728,8.991v7.583c0,4.333-1.172,7.475-3.409,9.641s-5.752,3.142-10.332,3.142H16.51v1.083a13.4,13.4,0,0,0,.107,2.275,2.4,2.4,0,0,0,1.172,1.408v8.45H0v-8.45a2.056,2.056,0,0,0,1.6-1.625A9.566,9.566,0,0,0,1.7,35.541V14.525A14.786,14.786,0,0,0,1.6,12.25C1.491,11.6.959,11.058,0,10.733V1.742ZM16.3,11.925V25.141a1.331,1.331,0,0,0,.639.108h.639a4.462,4.462,0,0,0,2.769-.867A3.608,3.608,0,0,0,21.41,21.35v-5.2a4.463,4.463,0,0,0-1.065-3.358,8.7,8.7,0,0,0-4.048-.867Zm27.056,3.142a19.732,19.732,0,0,1,4.793-1.3c1.065-.217,2.13-.325,3.2-.433a29.435,29.435,0,0,1,3.089-.108h1.278c.426,0,.959.108,1.385.108a16.91,16.91,0,0,1,7.563,2.817c2.343,1.517,3.409,4.008,3.409,7.258V36.949a3.974,3.974,0,0,0,.32,1.95,2.543,2.543,0,0,0,.852.975c.107.108.213.108.213.217l.213.217v7.583H55.815v-2.6c-.107.108-.213.217-.32.217s-.213.108-.32.217c-.213.108-.32.325-.533.433s-.426.325-.639.433A12.343,12.343,0,0,1,51.342,48a11.172,11.172,0,0,1-4.154.65,11.072,11.072,0,0,1-6.711-2.167c-2.024-1.517-3.089-4.117-3.3-7.908A7.862,7.862,0,0,1,39.2,32.833a12.138,12.138,0,0,1,4.367-3.25,5.136,5.136,0,0,1,1.172-.433c.426-.108.746-.217,1.172-.325l9.161-3.033v-.867a16.293,16.293,0,0,0-.107-2.383,1.512,1.512,0,0,0-1.491-1.3h-.426a1.822,1.822,0,0,0-1.811,1.3A10.053,10.053,0,0,0,50.7,25.9H38.986V17.341A18.618,18.618,0,0,1,43.353,15.066ZM55.176,37.924V34.133a3.288,3.288,0,0,1-.746.217,14.986,14.986,0,0,0-1.7.542,5.379,5.379,0,0,0-1.7.975,1.962,1.962,0,0,0-.746,1.625,2.266,2.266,0,0,0,.533,1.625,1.7,1.7,0,0,0,1.172.542h.426c.107,0,.32-.108.426-.108a4.409,4.409,0,0,0,1.065-.433l.959-.65.213-.217a.4.4,0,0,0,.107-.325Zm16.084,1.3V25.574a18.339,18.339,0,0,1,1.7-8.45c1.172-2.275,3.835-3.358,7.989-3.358h1.917a6.586,6.586,0,0,1,2.024.325,7.707,7.707,0,0,1,2.024.758,7.834,7.834,0,0,1,1.917,1.517V14.2H103.11v7.475a3.124,3.124,0,0,0-1.278,1.625,7.316,7.316,0,0,0-.32,2.275V49.407c0,5.525-1.172,8.991-3.622,10.4-2.343,1.408-5.752,2.167-10.226,2.383a12.726,12.726,0,0,1-2.876,0c-1.065-.108-2.024-.217-3.089-.325a25.884,25.884,0,0,1-5.645-1.625,14.227,14.227,0,0,1-3.941-2.275V49.841H84.256a18.567,18.567,0,0,0,.213,2.708c.213.758.746,1.083,1.811,1.083,1.278,0,2.024-.325,2.237-.867a5.849,5.849,0,0,0,.213-2.492V46.482a.1.1,0,0,1-.107.108.1.1,0,0,0-.107.108,20.376,20.376,0,0,1-3.089,1.625,10.69,10.69,0,0,1-4.261.758c-3.3,0-5.859-.867-7.563-2.6a10.977,10.977,0,0,1-2.343-7.258Zm17.576-.433V23.408c-.32-.108-.746-.217-1.065-.325a2.9,2.9,0,0,0-.959-.108A2.261,2.261,0,0,0,85,23.841a4.3,4.3,0,0,0-.746,2.708v7.583a15.007,15.007,0,0,0,.426,3.9,1.731,1.731,0,0,0,1.811,1.192,2.9,2.9,0,0,0,.959-.108,3.235,3.235,0,0,0,1.385-.325Zm16.4-1.3V24.708c0-4.658,1.278-7.692,3.941-9.208s6.391-2.275,11.184-2.275a23.671,23.671,0,0,1,10.226,2.058c2.982,1.408,4.474,3.9,4.474,7.8V33.591H117.916v3.358a4.37,4.37,0,0,0,.639,2.708,1.988,1.988,0,0,0,1.491.867h.107a1.83,1.83,0,0,0,1.278-.65,2.157,2.157,0,0,0,.639-1.517v-.217l-.107-.108V35.324h13v8.883c-.107.217-.32.325-.426.433-.213.108-.32.325-.639.433a20.477,20.477,0,0,1-5.006,2.167,33.581,33.581,0,0,1-6.711,1.408,5.974,5.974,0,0,1-1.385.108h-1.385c-4.58-.217-8.1-1.192-10.545-2.817-2.343-1.517-3.622-4.333-3.622-8.45Zm12.569-11.483h5.006a13.794,13.794,0,0,0-.426-3.467,1.84,1.84,0,0,0-2.024-1.192,1.966,1.966,0,0,0-2.024,1.192,9.384,9.384,0,0,0-.533,3.467Z" transform="translate(0 0.1)" fill="#1c1c1c"/>
</svg>