
<svg id="Component_73_8" data-name="Component 73 – 8" xmlns="http://www.w3.org/2000/svg" width="110" height="110" viewBox="0 0 110 110">
  <g id="Ellipse_272" data-name="Ellipse 272" stroke="#fff" stroke-width="1" opacity="0.614">
    <circle cx="55" cy="55" r="55" stroke="none"/>
    <circle cx="55" cy="55" r="54.5" fill="none"/>
  </g>
  <g id="Polygon_4" data-name="Polygon 4" transform="translate(83 30) rotate(90)" fill="#fff">
    <path d="M 44.78562927246094 42.5 L 5.214367866516113 42.5 C 4.308988094329834 42.5 3.498918056488037 42.03149032592773 3.047418117523193 41.24671936035156 C 2.59591817855835 40.46195983886719 2.598038196563721 39.52616119384766 3.053098201751709 38.74345016479492 L 22.8387279510498 4.712170124053955 C 23.29140853881836 3.933560132980347 24.09935760498047 3.468720197677612 24.99999809265137 3.468720197677612 C 25.90063858032227 3.468720197677612 26.70858764648438 3.933560132980347 27.16126823425293 4.712170124053955 L 46.9468994140625 38.74345016479492 C 47.40195846557617 39.52616119384766 47.40407943725586 40.46195983886719 46.95257949829102 41.24671936035156 C 46.50107955932617 42.03149032592773 45.69100952148438 42.5 44.78562927246094 42.5 Z" stroke="none"/>
    <path d="M 24.99999809265137 3.968719482421875 C 24.27948760986328 3.968719482421875 23.63312721252441 4.340591430664062 23.27098846435547 4.963481903076172 L 3.485359191894531 38.99475860595703 C 3.121307373046875 39.62092971801758 3.119609832763672 40.36957168579102 3.480808258056641 40.99737930297852 C 3.842006683349609 41.62519073486328 4.490066528320312 42 5.214366912841797 42 L 44.78562927246094 42 C 45.50992965698242 42 46.15798950195312 41.62519073486328 46.51918792724609 40.99737930297852 C 46.88038635253906 40.36957168579102 46.87868881225586 39.62092971801758 46.5146369934082 38.99475860595703 L 26.72900772094727 4.963481903076172 C 26.36686897277832 4.340591430664062 25.72050857543945 3.968719482421875 24.99999809265137 3.968719482421875 M 24.99999809265137 2.968719482421875 C 26.00758361816406 2.968719482421875 27.01516723632812 3.466098785400391 27.5935173034668 4.460861206054688 L 47.37914657592773 38.49214172363281 C 48.54192733764648 40.49213027954102 47.09906768798828 43 44.78562927246094 43 L 5.214366912841797 43 C 2.900928497314453 43 1.45806884765625 40.49213027954102 2.620849609375 38.49214172363281 L 22.40647888183594 4.460861206054688 C 22.98482894897461 3.466098785400391 23.99241256713867 2.968719482421875 24.99999809265137 2.968719482421875 Z" stroke="none" fill="#fff"/>
  </g>
</svg>
